<svg xmlns="http://www.w3.org/2000/svg" version="1.1" xmlns:xlink="http://www.w3.org/1999/xlink" xmlns:svgjs="http://svgjs.dev/svgjs" width="1500" height="1500" viewBox="0 0 1500 1500"><rect width="1500" height="1500" fill="#35185a"></rect><g transform="matrix(0.6666666666666666,0,0,0.6666666666666666,249.39393939393938,444.94592096673244)"><svg viewBox="0 0 396 249" data-background-color="#35185a" preserveAspectRatio="xMidYMid meet" height="943" width="1500" xmlns="http://www.w3.org/2000/svg" xmlns:xlink="http://www.w3.org/1999/xlink"><g id="tight-bounds" transform="matrix(1,0,0,1,0.2400000000000091,0.27708918822665396)"><svg viewBox="0 0 395.52 247.2" height="247.2" width="395.52"><g><svg></svg></g><g><svg viewBox="0 0 395.52 247.2" height="247.2" width="395.52"><mask id="f19fcf6f-e38f-4372-83d1-b03ae1742ad0"><rect width="640" height="400" fill="white"></rect><g transform="matrix(1,0,0,1,39.55199999999999,54.995790586991006)"><svg viewBox="0 0 316.416 137.20841882601798" height="137.20841882601798" width="316.416"><g><svg viewBox="0 0 316.416 137.20841882601798" height="137.20841882601798" width="316.416"><g><svg viewBox="0 0 316.416 137.20841882601798" height="137.20841882601798" width="316.416"><g><svg viewBox="0 0 316.416 137.20841882601798" height="137.20841882601798" width="316.416"><g id="SvgjsG3296"><svg viewBox="0 0 316.416 137.20841882601798" height="137.20841882601798" width="316.416" id="SvgjsSvg3295"><g><svg viewBox="0 0 316.416 137.20841882601798" height="137.20841882601798" width="316.416"><g transform="matrix(1,0,0,1,0,0)"><svg width="316.416" viewBox="-3 -37.45 95.54 42" height="137.20841882601798" data-palette-color="#ffffff"><path d="M1 0L7.5-33.45 13.3-33.45 7.55-4.2 19.5-4.2 19.5 0 1 0ZM34.45-25.1Q36.85-25.1 38.45-24.4 40.05-23.7 41.02-22.53 42-21.35 42.4-19.85 42.8-18.35 42.8-16.75L42.8-16.75Q42.8-13.15 41.87-10 40.95-6.85 39.2-4.5 37.45-2.15 34.82-0.8 32.2 0.55 28.85 0.55L28.85 0.55Q26.5 0.55 24.9-0.15 23.3-0.85 22.32-2.02 21.35-3.2 20.92-4.7 20.5-6.2 20.5-7.8L20.5-7.8Q20.5-11.35 21.42-14.5 22.35-17.65 24.12-20 25.9-22.35 28.5-23.73 31.1-25.1 34.45-25.1L34.45-25.1ZM33.3-21.25Q31.65-21.25 30.37-19.88 29.1-18.5 28.22-16.43 27.35-14.35 26.9-11.95 26.45-9.55 26.45-7.45L26.45-7.45Q26.45-5.1 27.4-4.2 28.35-3.3 30-3.3L30-3.3Q31.65-3.3 32.92-4.67 34.2-6.05 35.07-8.13 35.95-10.2 36.4-12.63 36.85-15.05 36.85-17.1L36.85-17.1Q36.85-19.45 35.9-20.35 34.95-21.25 33.3-21.25L33.3-21.25ZM61-4.85L62.2-1.25Q61-0.75 59.7-0.35L59.7-0.35Q58.55 0 57.12 0.28 55.7 0.55 54.15 0.55L54.15 0.55Q51.8 0.55 50.2-0.15 48.59-0.85 47.62-2.02 46.65-3.2 46.22-4.7 45.8-6.2 45.8-7.8L45.8-7.8Q45.8-11.3 46.72-14.45 47.65-17.6 49.42-19.98 51.2-22.35 53.8-23.73 56.4-25.1 59.75-25.1L59.75-25.1Q61.15-25.1 62.17-24.68 63.2-24.25 63.87-23.58 64.55-22.9 64.95-22.05 65.34-21.2 65.59-20.3L65.59-20.3 61.45-18.5Q61.25-18.95 61.05-19.43 60.84-19.9 60.55-20.25 60.25-20.6 59.8-20.83 59.34-21.05 58.59-21.05L58.59-21.05Q56.95-21.05 55.67-19.73 54.4-18.4 53.52-16.43 52.65-14.45 52.2-12.1 51.75-9.75 51.75-7.65L51.75-7.65Q51.75-5.3 52.7-4.4 53.65-3.5 55.3-3.5L55.3-3.5Q55.95-3.5 56.92-3.7 57.9-3.9 58.82-4.17 59.75-4.45 60.4-4.65L60.4-4.65 61-4.85ZM73.89-3.7Q75.14-3.7 76.39-5.1 77.64-6.5 78.69-8.53 79.74-10.55 80.52-12.88 81.29-15.2 81.69-17.1L81.69-17.1 82.39-20.55Q81.79-20.85 81.02-20.95 80.24-21.05 79.54-21.05L79.54-21.05Q77.29-21.05 75.72-19.78 74.14-18.5 73.17-16.53 72.19-14.55 71.77-12.18 71.34-9.8 71.34-7.65L71.34-7.65Q71.34-5.45 71.97-4.58 72.59-3.7 73.89-3.7L73.89-3.7ZM72.04 0.4Q70.24 0.4 68.99-0.3 67.74-1 66.94-2.18 66.14-3.35 65.77-4.83 65.39-6.3 65.39-7.85L65.39-7.85Q65.39-11.4 66.32-14.5 67.24-17.6 69.04-19.93 70.84-22.25 73.44-23.58 76.04-24.9 79.44-24.9L79.44-24.9Q80.29-24.9 81.84-24.73 83.39-24.55 85.39-23.7L85.39-23.7 88.54-23.5 86.29-11.85Q85.79-9.2 85.79-7.2L85.79-7.2Q85.79-4.75 86.42-3.43 87.04-2.1 87.59-1.3L87.59-1.3 83.09 0.5Q82.34-0.35 81.87-1.6 81.39-2.85 81.39-4.45L81.39-4.45Q81.39-5.1 81.49-6.13 81.59-7.15 81.74-8.45L81.74-8.45 80.89-6.45Q80.04-4.5 79.04-3.18 78.04-1.85 76.92-1.05 75.79-0.25 74.57 0.08 73.34 0.4 72.04 0.4L72.04 0.4Z" opacity="1" transform="matrix(1,0,0,1,0,0)" fill="black" class="wordmark-text-0" id="SvgjsPath3294" stroke-width="7" stroke="black" stroke-linejoin="round"></path></svg></g></svg></g></svg></g></svg></g></svg></g></svg></g></svg></g></mask><g transform="matrix(1,0,0,1,39.55199999999999,54.995790586991006)"><svg viewBox="0 0 316.416 137.20841882601798" height="137.20841882601798" width="316.416"><g><svg viewBox="0 0 316.416 137.20841882601798" height="137.20841882601798" width="316.416"><g><svg viewBox="0 0 316.416 137.20841882601798" height="137.20841882601798" width="316.416"><g><svg viewBox="0 0 316.416 137.20841882601798" height="137.20841882601798" width="316.416"><g id="textblocktransform"><svg viewBox="0 0 316.416 137.20841882601798" height="137.20841882601798" width="316.416" id="textblock"><g><svg viewBox="0 0 316.416 137.20841882601798" height="137.20841882601798" width="316.416"><g transform="matrix(1,0,0,1,0,0)"><svg width="316.416" viewBox="-3 -37.45 95.54 42" height="137.20841882601798" data-palette-color="#ffffff"><path d="M1 0L7.5-33.45 13.3-33.45 7.55-4.2 19.5-4.2 19.5 0 1 0ZM34.45-25.1Q36.85-25.1 38.45-24.4 40.05-23.7 41.02-22.53 42-21.35 42.4-19.85 42.8-18.35 42.8-16.75L42.8-16.75Q42.8-13.15 41.87-10 40.95-6.85 39.2-4.5 37.45-2.15 34.82-0.8 32.2 0.55 28.85 0.55L28.85 0.55Q26.5 0.55 24.9-0.15 23.3-0.85 22.32-2.02 21.35-3.2 20.92-4.7 20.5-6.2 20.5-7.8L20.5-7.8Q20.5-11.35 21.42-14.5 22.35-17.65 24.12-20 25.9-22.35 28.5-23.73 31.1-25.1 34.45-25.1L34.45-25.1ZM33.3-21.25Q31.65-21.25 30.37-19.88 29.1-18.5 28.22-16.43 27.35-14.35 26.9-11.95 26.45-9.55 26.45-7.45L26.45-7.45Q26.45-5.1 27.4-4.2 28.35-3.3 30-3.3L30-3.3Q31.65-3.3 32.92-4.67 34.2-6.05 35.07-8.13 35.95-10.2 36.4-12.63 36.85-15.05 36.85-17.1L36.85-17.1Q36.85-19.45 35.9-20.35 34.95-21.25 33.3-21.25L33.3-21.25ZM61-4.85L62.2-1.25Q61-0.75 59.7-0.35L59.7-0.35Q58.55 0 57.12 0.28 55.7 0.55 54.15 0.55L54.15 0.55Q51.8 0.55 50.2-0.15 48.59-0.85 47.62-2.02 46.65-3.2 46.22-4.7 45.8-6.2 45.8-7.8L45.8-7.8Q45.8-11.3 46.72-14.45 47.65-17.6 49.42-19.98 51.2-22.35 53.8-23.73 56.4-25.1 59.75-25.1L59.75-25.1Q61.15-25.1 62.17-24.68 63.2-24.25 63.87-23.58 64.55-22.9 64.95-22.05 65.34-21.2 65.59-20.3L65.59-20.3 61.45-18.5Q61.25-18.95 61.05-19.43 60.84-19.9 60.55-20.25 60.25-20.6 59.8-20.83 59.34-21.05 58.59-21.05L58.59-21.05Q56.95-21.05 55.67-19.73 54.4-18.4 53.52-16.43 52.65-14.45 52.2-12.1 51.75-9.75 51.75-7.65L51.75-7.65Q51.75-5.3 52.7-4.4 53.65-3.5 55.3-3.5L55.3-3.5Q55.95-3.5 56.92-3.7 57.9-3.9 58.82-4.17 59.75-4.45 60.4-4.65L60.4-4.65 61-4.85ZM73.89-3.7Q75.14-3.7 76.39-5.1 77.64-6.5 78.69-8.53 79.74-10.55 80.52-12.88 81.29-15.2 81.69-17.1L81.69-17.1 82.39-20.55Q81.79-20.85 81.02-20.95 80.24-21.05 79.54-21.05L79.54-21.05Q77.29-21.05 75.72-19.78 74.14-18.5 73.17-16.53 72.19-14.55 71.77-12.18 71.34-9.8 71.34-7.65L71.34-7.65Q71.34-5.45 71.97-4.58 72.59-3.7 73.89-3.7L73.89-3.7ZM72.04 0.4Q70.24 0.4 68.99-0.3 67.74-1 66.94-2.18 66.14-3.35 65.77-4.83 65.39-6.3 65.39-7.85L65.39-7.85Q65.39-11.4 66.32-14.5 67.24-17.6 69.04-19.93 70.84-22.25 73.44-23.58 76.04-24.9 79.44-24.9L79.44-24.9Q80.29-24.9 81.84-24.73 83.39-24.55 85.39-23.7L85.39-23.7 88.54-23.5 86.29-11.85Q85.79-9.2 85.79-7.2L85.79-7.2Q85.79-4.75 86.42-3.43 87.04-2.1 87.59-1.3L87.59-1.3 83.09 0.5Q82.34-0.35 81.87-1.6 81.39-2.85 81.39-4.45L81.39-4.45Q81.39-5.1 81.49-6.13 81.59-7.15 81.74-8.45L81.74-8.45 80.89-6.45Q80.04-4.5 79.04-3.18 78.04-1.85 76.92-1.05 75.79-0.25 74.57 0.08 73.34 0.4 72.04 0.4L72.04 0.4Z" opacity="1" transform="matrix(1,0,0,1,0,0)" fill="#ffffff" class="wordmark-text-0" data-fill-palette-color="primary" id="text-0"></path></svg></g></svg></g></svg></g></svg></g></svg></g></svg></g></svg></g><g mask="url(#f19fcf6f-e38f-4372-83d1-b03ae1742ad0)"><g transform="matrix(1.946030815233676, 0, 0, 1.946030815233676, 75.1600586402784, 1)"><svg xmlns="http://www.w3.org/2000/svg" xmlns:xlink="http://www.w3.org/1999/xlink" version="1.1" x="0" y="0" viewBox="1 0.9999876293241867 126 126.0000602665466" style="enable-background:new 0 0 128 128;" xml:space="preserve" height="126.0000602665466" width="126" class="icon-none" data-fill-palette-color="accent" id="none"><g fill="#ffffff" data-fill-palette-color="accent"><path d="M110.937 52.703C103.246 48.263 94.284 47.083 85.706 49.382 77.439 51.597 70.488 56.793 66.019 64.05 75.422 81.459 69.307 103.373 52.065 113.328A36.54 36.54 0 0 1 33.752 118.243C33.12 118.243 32.488 118.215 31.858 118.181A62.7 62.7 0 0 0 64 127C95.814 127 122.104 103.414 126.378 72.777 124.154 64.602 118.837 57.265 110.937 52.703" fill="#ffffff" data-fill-palette-color="accent"></path><path d="M64 1A62.8 62.8 0 0 0 40.425 5.577C34.448 11.591 30.749 19.872 30.749 29 30.749 47.01 45.145 61.711 63.034 62.226 67.972 54.2 75.658 48.452 84.8 46.002 94.282 43.462 104.186 44.765 112.687 49.673A36.53 36.53 0 0 1 126.982 64.716C126.983 64.476 127 64.24 127 64 127 29.206 98.795 1 64 1" fill="#ffffff" data-fill-palette-color="accent"></path><path d="M50.314 110.297C65.912 101.291 71.444 81.472 62.946 65.723 43.168 65.162 27.249 48.91 27.249 29 27.249 21.663 29.419 14.825 33.14 9.082 13.961 19.882 1 40.421 1 64 1 84.167 10.486 102.105 25.228 113.636 33.414 115.793 42.419 114.854 50.314 110.297" fill="#ffffff" data-fill-palette-color="accent"></path></g></svg></g></g></svg></g><defs></defs></svg><rect width="395.52" height="247.2" fill="none" stroke="none" visibility="hidden"></rect></g></svg></g></svg>